PathFileType	4	(x/y/z)	S04_PSF_T10.trc
DataRate	CameraRate	NumFrames	NumMarkers	Units	OrigDataRate	OrigDataStartFrame	OrigNumFrames
240	240	6	51	mm	240	372	425
Frame#	Time	Sternum			R.Acromium			L.Acromium			Top.Head			R.ASIS			L.ASIS			R.PSIS			L.PSIS			R.Great.Tro			L.Great.Tro			R.Iliac.Crest			L.Iliac.Crest			V.Sacral			R.Thigh.Upper.Post			R.Thigh.Lower.Ant			R.Thigh.Lower.Post			R.Thigh.Upper.Ant			R.Knee.Lat			R.Knee.Med			R.Shank.Upper.Post			R.Shank.Lower.Ant			R.Shank.Lower.Post			R.Shank.Upper.Ant			R.Ankle.Lat			R.Ankle.Med			R.Heel.Upper			R.Heel.Med			R.Heel.Lat			R.Toe.Lat			R.Toe.Med			R.Toe.Tip			L.Thigh.Upper.Post			L.Thigh.Lower.Ant			L.Thigh.Lower.Post			L.Thigh.Upper.Ant			L.Knee.Lat			L.Knee.Med			L.Shank.Upper.Post			L.Shank.Lower.Ant			L.Shank.Lower.Post			L.Shank.Upper.Ant			L.Ankle.Lat			L.Ankle.Med			L.Heel.Upper			L.Heel.Med			L.Heel.Lat			L.Toe.Lat			L.Toe.Med			L.Toe.Tip			Cervical.Spine			Back			
		X1	Y1	Z1	X2	Y2	Z2	X3	Y3	Z3	X4	Y4	Z4	X5	Y5	Z5	X6	Y6	Z6	X7	Y7	Z7	X8	Y8	Z8	X9	Y9	Z9	X10	Y10	Z10	X11	Y11	Z11	X12	Y12	Z12	X13	Y13	Z13	X14	Y14	Z14	X15	Y15	Z15	X16	Y16	Z16	X17	Y17	Z17	X18	Y18	Z18	X19	Y19	Z19	X20	Y20	Z20	X21	Y21	Z21	X22	Y22	Z22	X23	Y23	Z23	X24	Y24	Z24	X25	Y25	Z25	X26	Y26	Z26	X27	Y27	Z27	X28	Y28	Z28	X29	Y29	Z29	X30	Y30	Z30	X31	Y31	Z31	X32	Y32	Z32	X33	Y33	Z33	X34	Y34	Z34	X35	Y35	Z35	X36	Y36	Z36	X37	Y37	Z37	X38	Y38	Z38	X39	Y39	Z39	X40	Y40	Z40	X41	Y41	Z41	X42	Y42	Z42	X43	Y43	Z43	X44	Y44	Z44	X45	Y45	Z45	X46	Y46	Z46	X47	Y47	Z47	X48	Y48	Z48	X49	Y49	Z49	X50	Y50	Z50	X51	Y51	Z51	

372	1.5458	623.2	1271.7	263.18	496.17	1502.1	435.59	500.33	1487	85.004	537.07	1827.1	249.21	595.56	990.12	392.15	584.91	1006	142.89	382.36	1026.2	307.61	386.23	1034.6	226.4	517.48	911.45	463.21	458.49	928.87	86.902	510	1084.7	440.4	487.89	1088.8	104.05	362.39	988.99	264.38	606.81	665.12	454.31	706.05	617.49	416.64	640.53	581.87	437.77	673.42	721.63	438.27	686.98	528.91	425.91	670.23	517.3	298.01	659.39	297.38	424.06	745.18	236.41	391.35	675.86	229.65	410.79	725.41	303.83	412.84	716.6	116.92	395.32	743.15	137.57	308.54	667.24	71.759	331.77	687.34	46.725	302.11	676.69	39.444	364.99	837.33	68.489	430.03	882.03	87.409	319.59	932.4	119.4	373.48	402.91	708.16	103.44	463.08	597.82	112.27	393.94	618.42	117.68	466.31	686.98	95.339	410.36	514.45	125.45	414.47	506.17	248.48	294.63	349.59	132.21	351.53	254.4	134.78	289.69	272.17	141.38	356.34	330.5	125.46	305.64	107.53	160.81	311.6	116.88	252.52	229.16	78.343	204.53	234.48	51.723	236.93	232.22	52.172	175.38	415.29	42.598	135.57	447.29	43.173	251.82	504.7	51.037	202.31	450.46	1548.7	262.89	365.53	1294.1	243.93
373	1.55	628.64	1270.8	263.53	501.43	1501.1	435.9	506.05	1486.2	85.258	542.47	1826.2	249.51	601.02	989.17	392.22	590.09	1005	142.98	387.76	1025.3	307.86	391.57	1033.7	226.65	522.96	910.55	463.41	463.39	928.18	86.996	515.4	1083.8	440.57	493.17	1087.9	104.19	367.74	988.11	264.63	611.53	663.99	454.58	710.81	616.32	417.07	645.25	580.72	438.08	678.19	720.48	438.62	692.23	528.15	426.28	675.35	516.15	298.42	669.73	296.14	424.53	756.83	237.2	391.69	687.74	228.81	411.22	735.56	304.14	413.2	731.15	117.02	395.73	756.92	138.26	308.84	682.67	70.69	332.41	703.15	46.132	302.65	692.89	38.642	365.59	853.08	71.305	430.01	896.95	91.194	319.4	946.75	124.33	373.07	406.55	708.03	103.65	466.15	597.37	112.47	397.13	618.33	117.85	469.87	686.51	95.543	412.86	514.24	125.56	417	505.91	248.59	296.16	349.96	132.41	352.6	254.5	134.9	290.85	272.6	141.53	357.8	330.56	125.57	305.94	107.79	161.01	311.88	117.17	252.74	229.33	78.704	204.76	234.61	52.042	237.12	232.32	52.575	175.57	415.33	42.587	135.67	447.41	43.048	251.85	504.82	50.801	202.33	455.96	1547.8	263.12	370.97	1293.2	243.97
374	1.5542	634.09	1269.8	263.89	506.71	1500.1	436.23	511.77	1485.3	85.529	547.89	1825.2	249.83	606.5	988.21	392.29	595.28	1004.1	143.07	393.19	1024.5	308.13	396.93	1032.9	226.92	528.47	909.62	463.61	468.3	927.47	87.093	520.8	1082.7	440.76	498.46	1087.1	104.34	373.11	987.2	264.9	616.27	662.84	454.88	715.58	615.13	417.5	649.96	579.56	438.42	682.97	719.3	438.98	697.44	527.35	426.67	680.44	514.96	298.84	679.94	294.98	424.98	768.27	238.03	392	699.44	228.07	411.63	745.54	304.49	413.55	745.43	117.25	396.1	770.41	139.05	309.11	697.84	69.771	333.02	718.7	45.69	303.17	708.83	38.004	366.15	868.49	74.242	429.98	911.53	95.063	319.2	960.74	129.33	372.65	410.24	707.89	103.88	469.27	596.92	112.66	400.37	618.23	118.03	473.48	686.03	95.741	415.44	514.01	125.68	419.62	505.64	248.71	297.76	350.35	132.59	353.71	254.6	135.01	292.06	273.04	141.67	359.31	330.63	125.68	306.26	108.06	161.22	312.19	117.47	252.96	229.52	79.103	204.97	234.74	52.402	237.3	232.43	53.011	175.75	415.37	42.576	135.76	447.53	42.928	251.88	504.93	50.563	202.34	461.46	1546.9	263.36	376.43	1292.4	244.02
375	1.5583	639.56	1268.8	264.26	512	1499.1	436.56	517.51	1484.4	85.815	553.31	1824.3	250.17	612.01	987.25	392.36	600.48	1003.1	143.17	398.63	1023.6	308.41	402.31	1032	227.21	534.02	908.69	463.81	473.23	926.75	87.195	526.23	1081.7	440.95	503.77	1086.2	104.51	378.5	986.28	265.18	621.04	661.67	455.19	720.36	613.91	417.94	654.69	578.38	438.77	687.78	718.11	439.34	702.64	526.54	427.06	685.51	513.75	299.26	689.99	293.89	425.42	779.49	238.91	392.29	710.94	227.42	412.02	755.36	304.86	413.89	759.43	117.59	396.43	783.62	139.93	309.35	712.72	68.988	333.58	733.96	45.383	303.64	724.48	37.513	366.67	883.53	77.274	429.93	925.75	98.989	318.99	974.34	134.37	372.23	413.98	707.73	104.13	472.45	596.45	112.85	403.67	618.11	118.22	477.13	685.54	95.933	418.09	513.78	125.8	422.32	505.35	248.84	299.43	350.76	132.77	354.86	254.71	135.13	293.32	273.49	141.82	360.87	330.7	125.79	306.58	108.36	161.41	312.5	117.79	253.17	229.72	79.541	205.18	234.89	52.805	237.47	232.54	53.484	175.92	415.42	42.565	135.86	447.65	42.811	251.91	505.05	50.323	202.35	466.97	1546	263.62	381.91	1291.5	244.08
376	1.5625	645.04	1267.8	264.64	517.29	1498.1	436.91	523.25	1483.5	86.118	558.76	1823.4	250.52	617.56	986.28	392.43	605.7	1002.2	143.27	404.1	1022.6	308.72	407.7	1031	227.51	539.61	907.74	464.03	478.16	926.03	87.303	531.67	1080.7	441.15	509.08	1085.3	104.69	383.9	985.35	265.49	625.84	660.51	455.53	725.16	612.68	418.37	659.45	577.2	439.14	692.62	716.91	439.7	707.83	525.71	427.47	690.57	512.53	299.68	699.9	292.87	425.84	790.49	239.82	392.57	722.23	226.86	412.39	765	305.25	414.2	773.12	118.03	396.72	796.52	140.86	309.56	727.28	68.327	334.09	748.9	45.194	304.08	739.79	37.154	367.14	898.18	80.373	429.86	939.58	102.94	318.76	987.55	139.42	371.81	417.76	707.55	104.4	475.7	595.98	113.03	407.04	617.98	118.41	480.83	685.04	96.118	420.82	513.54	125.92	425.1	505.04	248.97	301.16	351.19	132.93	356.05	254.82	135.24	294.63	273.97	141.95	362.5	330.77	125.9	306.93	108.67	161.6	312.84	118.13	253.36	229.93	80.022	205.37	235.04	53.254	237.63	232.66	53.996	176.08	415.47	42.556	135.95	447.77	42.699	251.93	505.17	50.082	202.36	472.49	1545	263.9	387.4	1290.6	244.16
377	1.5667	650.54	1266.9	265.02	522.6	1497.1	437.28	529	1482.7	86.438	564.21	1822.4	250.88	623.12	985.31	392.51	610.94	1001.2	143.38	409.58	1021.7	309.05	413.11	1030.1	227.83	545.23	906.78	464.25	483.12	925.29	87.42	537.13	1079.7	441.36	514.41	1084.4	104.89	389.33	984.4	265.82	630.69	659.35	455.87	729.99	611.44	418.78	664.24	576.02	439.51	697.51	715.71	440.05	713.04	524.87	427.88	695.63	511.31	300.11	709.64	291.93	426.23	801.25	240.74	392.82	733.3	226.37	412.73	774.47	305.65	414.5	786.48	118.54	396.97	809.1	141.85	309.75	741.51	67.774	334.56	763.5	45.105	304.47	754.75	36.908	367.58	912.41	83.509	429.78	953.02	106.89	318.53	1000.3	144.43	371.39	421.59	707.36	104.68	479.01	595.5	113.21	410.46	617.84	118.61	484.59	684.54	96.298	423.64	513.3	126.04	427.98	504.72	249.1	302.96	351.64	133.07	357.3	254.94	135.35	295.99	274.46	142.08	364.19	330.85	126.01	307.29	109.01	161.77	313.2	118.49	253.53	230.16	80.547	205.54	235.2	53.752	237.78	232.8	54.547	176.23	415.52	42.548	136.03	447.9	42.592	251.96	505.29	49.839	202.37	478.01	1544.1	264.19	392.91	1289.7	244.26
